<svg width="84" height="31" viewBox="0 0 84 31" fill="none" xmlns="http://www.w3.org/2000/svg">
<path d="M24.8107 24.4846C26.5627 23.6232 27.6752 21.8435 27.6821 19.8913L27.7089 12.3387C27.7159 10.3826 26.6117 8.59227 24.8606 7.72039L18.1073 4.35772C16.6621 3.63811 14.9627 3.63952 13.5186 4.36153L6.79386 7.72392C5.05291 8.5944 3.95319 10.3738 3.95319 12.3202V19.8786C3.95319 21.8374 5.0668 23.6259 6.82465 24.4902L13.5447 27.7942C14.9745 28.4972 16.6495 28.4972 18.0794 27.7942L24.8107 24.4846Z" fill="#4A2FEC"/>
<path d="M13.786 22.5845V15.9662C13.786 15.7983 13.6173 15.6828 13.4608 15.7434L10.0207 17.0765C9.91227 17.1185 9.78934 17.0763 9.72952 16.9766L7.3121 12.9476C7.18744 12.7398 6.86835 12.8282 6.86835 13.0705V19.1751" stroke="#FFE040" stroke-width="1.77882" stroke-linecap="round" stroke-linejoin="round"/>
<circle cx="13.7861" cy="25.302" r="0.889412" fill="#FFE040"/>
<path d="M33.6097 10.076C33.8379 10.0727 34.0659 10.0939 34.2897 10.139C34.4786 10.1831 34.6536 10.2733 34.799 10.4015C34.9716 10.5579 35.1163 10.7426 35.227 10.9474C35.399 11.2597 35.5516 11.5823 35.6839 11.9134L38.1257 18.0133L40.4887 11.916C40.6028 11.5893 40.7433 11.2724 40.9088 10.9684C41.0234 10.7587 41.1746 10.5712 41.3551 10.4146C41.5126 10.2879 41.6966 10.1982 41.8934 10.1521C42.1191 10.1018 42.35 10.078 42.5813 10.0813H42.9567C43.5291 10.0813 43.9256 10.1889 44.1461 10.4015C44.3667 10.6141 44.4769 11.0052 44.4769 11.5643V22.0056C44.4874 22.141 44.4633 22.2769 44.4068 22.4004C44.3503 22.5239 44.2633 22.631 44.154 22.7117C43.9266 22.8634 43.658 22.9413 43.3847 22.9348C43.1211 22.9364 42.8631 22.8587 42.6443 22.7117C42.5326 22.6328 42.4433 22.5262 42.3853 22.4024C42.3273 22.2786 42.3025 22.1419 42.3135 22.0056V12.084C42.2058 12.5354 42.1034 12.9081 42.0089 13.1995C41.9144 13.4908 41.8172 13.7638 41.7227 14.0132L39.3597 19.8244C39.2642 20.1154 39.0951 20.3767 38.8687 20.583C38.6531 20.7208 38.3995 20.7869 38.144 20.772C37.8516 20.7935 37.5599 20.7208 37.3117 20.5646C37.0756 20.3515 36.8999 20.0798 36.8024 19.7772L34.4945 14.021C34.4 13.7822 34.3054 13.5145 34.2083 13.2179C34.1111 12.9213 34.0009 12.5433 33.8696 12.0918V22.0135C33.8805 22.1497 33.8557 22.2865 33.7977 22.4103C33.7397 22.5341 33.6505 22.6407 33.5388 22.7195C33.3142 22.8687 33.0496 22.9465 32.78 22.9426C32.5178 22.9457 32.2611 22.8678 32.0448 22.7195C31.9363 22.6383 31.8501 22.531 31.7941 22.4075C31.7381 22.2841 31.7142 22.1486 31.7245 22.0135V11.5721C31.7245 11.0131 31.8348 10.6246 32.0553 10.4094C32.2759 10.1941 32.6723 10.0891 33.2447 10.0891L33.6097 10.076Z" fill="#4A2FEC" stroke="#4A2FEC" stroke-width="0.197647"/>
<path d="M52.0627 10.0054C52.3461 9.99806 52.6258 10.0718 52.8687 10.218C53.1456 10.4322 53.3515 10.7249 53.4595 11.0579L57.4819 21.4284C57.5474 21.568 57.5814 21.7204 57.5814 21.8746C57.5814 22.0288 57.5474 22.1812 57.4819 22.3208C57.4152 22.4469 57.3239 22.5583 57.2135 22.6485C57.103 22.7387 56.9755 22.8057 56.8386 22.8458C56.5526 22.9393 56.2461 22.9512 55.9538 22.8799C55.7972 22.8329 55.6559 22.7452 55.5442 22.6258C55.4326 22.5063 55.3547 22.3594 55.3184 22.2001L54.2681 19.3417H49.7758L48.7255 22.2736C48.6858 22.4184 48.61 22.5509 48.5054 22.6588C48.4008 22.7666 48.2706 22.8463 48.1269 22.8904C47.8509 22.9552 47.5621 22.9397 47.2946 22.8458C47.033 22.769 46.8099 22.5966 46.6697 22.3628C46.6044 22.2325 46.5703 22.0887 46.5703 21.9428C46.5703 21.797 46.6044 21.6532 46.6697 21.5229L50.6921 11.0632C50.7899 10.728 50.9934 10.4334 51.2724 10.2232C51.5105 10.0788 51.7841 10.0033 52.0627 10.0054ZM52.0417 12.8638C51.9445 13.2234 51.8526 13.5409 51.7633 13.8218C51.6741 14.1027 51.5585 14.4439 51.4141 14.8481L50.4663 17.4414H53.617L52.6875 14.8481C52.5326 14.4307 52.4092 14.0738 52.32 13.7772C52.2307 13.4806 52.123 13.1735 52.0417 12.8638Z" fill="#4A2FEC" stroke="#4A2FEC" stroke-width="0.197647"/>
<path d="M60.8417 10.0054C61.1277 9.99826 61.409 10.0789 61.6477 10.2364C61.7634 10.3225 61.8551 10.4365 61.9144 10.5679C61.9737 10.6992 61.9984 10.8435 61.9864 10.9871V15.9217L67.2376 10.2915C67.3266 10.1893 67.4389 10.1099 67.565 10.0601C67.6911 10.0103 67.8274 9.99153 67.9623 10.0054C68.2321 10.0249 68.4845 10.1459 68.6685 10.344C68.8633 10.5315 68.986 10.7814 69.0151 11.0501C69.0306 11.1802 69.0149 11.3121 68.9692 11.4349C68.9236 11.5577 68.8493 11.6678 68.7526 11.7562L64.7827 15.8849L69.1622 21.1056C69.2698 21.2113 69.3516 21.3405 69.4013 21.483C69.4509 21.6254 69.467 21.7774 69.4483 21.9271C69.3944 22.2134 69.2351 22.469 69.002 22.6437C68.7799 22.8273 68.5024 22.9308 68.2143 22.9377C68.066 22.9365 67.9201 22.8993 67.7894 22.8294C67.6586 22.7594 67.5467 22.6588 67.4634 22.5361L63.2966 17.3338L61.9838 18.6751V21.9455C61.9961 22.0891 61.9714 22.2335 61.9121 22.3649C61.8528 22.4963 61.7609 22.6103 61.6451 22.6962C61.4067 22.8547 61.1253 22.9362 60.8391 22.9298C60.5536 22.9365 60.273 22.8549 60.0356 22.6962C59.9194 22.6106 59.8269 22.4967 59.7672 22.3653C59.7074 22.2339 59.6823 22.0894 59.6943 21.9455V10.9871C59.6826 10.8433 59.7078 10.6988 59.7675 10.5675C59.8272 10.4361 59.9195 10.3222 60.0356 10.2364C60.274 10.0779 60.5556 9.99723 60.8417 10.0054Z" fill="#4A2FEC" stroke="#4A2FEC" stroke-width="0.197647"/>
<path d="M79.2319 10.008C79.3468 9.99909 79.4619 10.0204 79.5663 10.07C79.6708 10.1196 79.761 10.1957 79.8283 10.2911C79.9558 10.4939 80.0206 10.7313 80.014 10.9722C80.0187 11.2104 79.954 11.4446 79.8283 11.6453C79.7626 11.7429 79.6729 11.8212 79.5683 11.8723C79.4636 11.9234 79.3476 11.9455 79.2319 11.9364H73.9038V15.3765H78.8736C78.9858 15.3685 79.0981 15.3901 79.1998 15.4392C79.3015 15.4883 79.3891 15.5633 79.4543 15.6569C79.5802 15.8545 79.645 16.0863 79.64 16.322C79.6451 16.5569 79.5803 16.7878 79.4543 16.9843C79.3898 17.0788 79.3024 17.1546 79.2006 17.2042C79.0988 17.2539 78.9861 17.2757 78.8736 17.2675H73.9038V21.0067H79.3523C79.468 20.997 79.5842 21.0189 79.6889 21.07C79.7937 21.1212 79.8833 21.1998 79.9486 21.2978C80.0757 21.498 80.1413 21.7324 80.137 21.9709C80.1442 22.2123 80.0785 22.4501 79.9486 22.652C79.882 22.7481 79.7919 22.8249 79.6873 22.8745C79.5827 22.9242 79.4672 22.9451 79.3523 22.9351H73.1531C72.5829 22.9351 72.188 22.8256 71.9682 22.6065C71.7485 22.3902 71.6387 21.9949 71.6387 21.426V11.5117C71.6387 10.9401 71.7485 10.5475 71.9682 10.3285C72.188 10.1095 72.5829 10 73.1531 10L79.2319 10.008Z" fill="#4A2FEC" stroke="#4A2FEC" stroke-width="0.197647"/>
</svg>
