<svg xmlns="http://www.w3.org/2000/svg" id="_&#xB808;&#xC774;&#xC5B4;_1" data-name="&#xB808;&#xC774;&#xC5B4; 1" viewBox="0 0 350 56.1"><defs><style>      .cls-1 {        fill: #000;        stroke-width: 0px;      }    </style></defs><path class="cls-1" d="M32.7,12h10.9V.9l-10.9,11.1ZM0,.9v11.1h11L0,.9ZM0,28h12.1v-12.3H0v12.3ZM31.5,28h12.1v-12.3h-12.1v12.3ZM0,44h12.1v-12.3H0v12.3ZM31.5,44h12.1v-12.3h-12.1v12.3ZM23,21.8l-.2.2-.2.2-.7.7h0s-.2-.2-.2-.2l-5.8-5.9v11.1h12.1v-11.1l-4.9,5h0Z"></path><path class="cls-1" d="M59.8,44V.9h8.5l14.2,32.4h.1c4.8-10.8,9.5-21.6,14.3-32.4h8.5v43.1h-7V14h-.2l-13.1,30h-5.2c-4.3-10-8.7-20-13-30h-.2v30h-7Z"></path><path class="cls-1" d="M109.9,44V.9h16c4.7,0,14.5,2.2,14.5,13.4s-10,13.9-14.1,13.9h-9.5v15.7h-6.9ZM116.8,21.5h8c4,0,8.4-1.5,8.4-7.1s-4.5-7.1-8.5-7.1h-7.9v14.2Z"></path><path class="cls-1" d="M158.8,44.9c-7.7,0-14.4-4.1-16.6-12.7l6.4-2.3c1.7,6.4,5.9,8.6,10.1,8.6s8-2,8-6.2-3.9-5.4-7.7-6.6l-3.8-1.2c-4.2-1.3-11.5-4.1-11.5-12.2s6.6-12.4,14.4-12.4,13,4.5,14.6,10.1l-6.3,2.6c-1.4-3.9-4.3-6.4-8.5-6.4s-7,2.3-7,5.5,4.7,5.7,7.8,6.8l4.4,1.4c4.1,1.3,11,3.4,11,11.4s-6.3,13.4-15.3,13.4Z"></path><path class="cls-1" d="M183.5,56.1l4.3-11.1-11.9-31.8h7.1c2.8,7.5,5.4,15,8.2,23h.1c2.8-8.1,5.5-15.6,8.2-23h6.9l-16.1,42.9h-6.8Z"></path><path class="cls-1" d="M220.7,44.9c-6.6,0-11.5-3.5-13-8.6l6-2c1.4,3.6,4.4,5.2,7,5.2s4.8-.9,4.8-3.7-2.5-3.4-4.9-4.1l-3.2-.9c-3.5-1-8.3-3.3-8.3-9.1s5-9.3,11-9.3,10,3.3,11.3,7.7l-6,2c-.8-2.3-2.6-4.3-5.6-4.3s-4.3,1.4-4.3,3.5,3.3,3.8,5.8,4.5l2.5.7c3,.9,8.4,2.5,8.4,8.7s-4.6,9.8-11.6,9.8Z"></path><path class="cls-1" d="M249.7,44.9c-9.4,0-9.4-7.3-9.4-10.5v-15.2h-6v-5.9h6V4.4h6.5v8.8h8.5v5.9h-8.5v12.9c0,3,0,6.8,4.1,6.8s2.9-.4,4.4-1.2v5.9c-1.5.9-3.6,1.3-5.6,1.3Z"></path><path class="cls-1" d="M273.1,44.9c-8.9,0-15.5-6.4-15.5-16.2s6.3-16.3,15.1-16.3,14.4,4.5,14.4,16.1v1.9h-22.9c.5,5.5,4.3,8.7,9,8.7s6.7-2.3,8.1-5.8l6,2.4c-2.1,5.4-7.3,9.2-14.2,9.2ZM264.4,25.7h16.1c-.4-5.6-4.1-7.7-7.9-7.7s-7.4,3.1-8.2,7.7Z"></path><path class="cls-1" d="M290.3,44V13.3h6.3v4.9h.1c2.2-3.9,5.9-5.8,9.6-5.8s7.7,1.9,9.3,6.2h.1c2.9-4.6,6.7-6.2,10.2-6.2,5.3,0,10.7,3.8,10.7,12.3v19.3h-6.5v-16.5c0-5.2-1.9-8.9-6.1-8.9s-7.4,3.4-7.4,9.2v16.2h-6.5v-16.5c0-5.2-1.9-8.9-6.2-8.9s-7.4,3.4-7.4,9.2v16.2h-6.4Z"></path><path class="cls-1" d="M338.7,1.2h-2.1V0h5.3v1.2h-2.1v6.8h-1.1V1.2Z"></path><path class="cls-1" d="M342.8,8V0h1.3l2.2,6h0c.8-2,1.5-4,2.3-6h1.3v8h-1.1V2.4h0l-2.1,5.6h-.8c-.7-1.9-1.4-3.7-2.1-5.6h0v5.6h-1.1Z"></path></svg>