<svg width="6049" height="2428" viewBox="0 0 6049 2428" fill="none" xmlns="http://www.w3.org/2000/svg">
<path d="M5293.04 2055.6C5293.04 1979.24 5293.04 1904.99 5293.04 1830.79C5317.73 1823.24 5331.63 1832.22 5345.15 1851.22C5395.75 1922.22 5448.2 1991.88 5499.72 2062.21C5523.81 2095.07 5547.4 2128.31 5574.66 2166.21C5574.66 2050.76 5574.66 1941.17 5574.66 1829.86C5588.06 1829.86 5599.43 1829.86 5612.03 1829.86C5612.03 1963.08 5612.03 2096.17 5612.07 2229.26C5582.03 2237.05 5575 2234.17 5558.27 2211.46C5504.43 2138.46 5449.96 2065.91 5396.17 1992.87C5375.36 1964.59 5355.73 1935.43 5331.93 1901.45C5331.93 2014.49 5331.93 2121.78 5331.93 2230.77C5318.32 2230.77 5307.45 2230.77 5293.04 2230.77C5293.04 2173.54 5293.04 2115.63 5293.04 2055.6Z" fill="#6F6864"/>
<path d="M3680.86 2117.29C3692.55 2132.72 3703.37 2146.88 3717.18 2164.94C3717.18 2050.66 3717.18 1941.01 3717.18 1829.78C3730.5 1829.78 3741.88 1829.78 3754.36 1829.78C3754.36 1963.31 3754.36 2096.34 3754.36 2230.71C3734.15 2232.83 3718.61 2235.94 3702.88 2213.82C3629.5 2110.64 3553.12 2009.59 3477.76 1907.82C3477.51 1907.47 3476.53 1907.67 3473.39 1907.41C3473.39 2015.03 3473.39 2122.47 3473.39 2231.19C3460.04 2231.19 3449.16 2231.19 3436.76 2231.19C3436.76 2097.37 3436.76 1963.84 3436.76 1830.63C3459.97 1823.13 3473.26 1831.09 3487.07 1850.45C3546.18 1933.38 3607.58 2014.68 3668.02 2096.67C3672.51 2102.75 3676.03 2109.55 3680.86 2117.29Z" fill="#6F6864"/>
<path d="M5949.55 2190.44C5955.91 2188.93 5960.58 2187.68 5965.18 2186.11C6004.23 2172.66 6009.2 2165.68 6009.2 2124.82C6009.2 2106.78 6009.2 2088.73 6009.2 2068.72C5965.13 2068.72 5923.34 2068.72 5880.12 2068.72C5880.12 2055.89 5880.12 2045.01 5880.12 2032.21C5934.47 2032.21 5989.27 2032.21 6047.15 2032.21C6047.15 2067.35 6043.57 2102.64 6048.08 2136.86C6053.68 2179.75 6033.25 2200.99 5997.78 2215.17C5942.89 2237.12 5886.9 2245.22 5828.94 2228.9C5743.3 2204.77 5697.5 2130.9 5693.29 2048.32C5690.76 1998.78 5697.46 1951.47 5726.57 1909.38C5763.64 1855.74 5815.58 1830.83 5879.74 1828.04C5942.51 1825.32 5997.32 1842.98 6045.72 1891.04C6040.08 1894.88 6034.56 1897.23 6031.1 1901.32C6021.92 1912.23 6014.93 1914.11 6001.62 1904.43C5951.86 1868.16 5896.59 1854.75 5836.77 1875.1C5777.25 1895.35 5744.81 1940.84 5736.39 2000.58C5729.73 2047.61 5733.94 2094.98 5764.99 2135.71C5790.22 2168.81 5822.2 2191.09 5863.82 2194C5891.58 2195.94 5919.76 2191.91 5949.55 2190.44Z" fill="#6F6864"/>
<path d="M4471.57 1988.2C4470.27 2032.17 4473.72 2074.86 4466.69 2115.74C4445.08 2241.18 4308.59 2268.81 4221.68 2205.86C4190.15 2183 4170.77 2145.22 4169.1 2105.25C4165.35 2015.73 4165.62 1926.03 4164.35 1836.41C4164.32 1834.46 4165.38 1832.51 4166.24 1829.41C4178.6 1829.41 4190.92 1829.41 4206.17 1829.41C4206.17 1836.87 4206.17 1844.31 4206.17 1851.75C4206.17 1927.56 4205.35 2003.39 4206.48 2079.19C4207.19 2126.68 4226.52 2164.74 4270.97 2186.78C4336.64 2219.37 4414.7 2180.92 4429.07 2106.15C4432.61 2087.85 4433.32 2068.81 4433.49 2050.1C4434.08 1978.5 4433.91 1906.9 4434.08 1835.31C4434.08 1834 4434.8 1832.69 4435.68 1829.77C4446.04 1829.77 4456.87 1829.77 4471.57 1829.77C4471.57 1881.54 4471.57 1933.82 4471.57 1988.2Z" fill="#6F6864"/>
<path d="M2830.9 2223.32C2784.9 2238.4 2740.41 2241.34 2694.45 2229.27C2620.15 2209.75 2576.71 2159.88 2560.2 2088.39C2545.96 2026.69 2551.02 1964.53 2588.29 1910.08C2624.29 1857.5 2675 1830.65 2739.49 1827.77C2803.55 1824.9 2856.92 1845.43 2899.37 1893.2C2903.57 1897.93 2903.05 1906.85 2904.72 1913.82C2893.16 1914.24 2888.89 1940.4 2871.08 1921.49C2844.33 1893.09 2811.89 1876.1 2772.05 1868.69C2725.55 1860.05 2647.83 1885.95 2622.47 1933.13C2585.81 2001.34 2583.28 2069.9 2627.1 2135.99C2650.16 2170.76 2684.9 2188.45 2726.16 2194.78C2781.94 2203.33 2828.89 2187.5 2866.5 2145.79C2878.88 2132.06 2888.6 2135.77 2900.05 2145.73C2912.13 2156.23 2907.94 2163.7 2897.13 2171.89C2875.28 2188.44 2853.95 2205.69 2830.9 2223.32Z" fill="#6F6864"/>
<path d="M3857.39 2147.11C3888.99 2191.68 3979.68 2218.08 4031.73 2178.85C4065.29 2153.57 4067.51 2100.53 4031.46 2078.46C4007.59 2063.85 3980.36 2054.81 3954.96 2042.59C3929.42 2030.31 3902.12 2020.18 3879.39 2003.83C3821.81 1962.39 3829.5 1889.74 3884.86 1849.8C3931.91 1815.85 4009.28 1820.75 4067.28 1859.61C4087.94 1873.46 4088.14 1875.44 4073.47 1894.79C4066.1 1904.5 4060.5 1905.04 4049.45 1897.58C4006.72 1868.71 3961.82 1853.8 3911.13 1880.13C3877.94 1897.37 3870.41 1951.99 3907.09 1972.63C3944.32 1993.58 3984.68 2009.04 4023.95 2026.24C4062.92 2043.31 4091.68 2068.41 4100.17 2112.64C4106.56 2145.89 4079.79 2199.85 4046.03 2218.22C3981.36 2253.41 3887.25 2238.7 3836.73 2184.86C3832.34 2180.17 3828.54 2166.99 3829.48 2166.45C3839.33 2160.77 3837.26 2138.91 3857.39 2147.11Z" fill="#6F6864"/>
<path d="M4964.45 2072.44C4964.45 2126.3 4964.45 2178.06 4964.45 2231.14C4951.48 2231.14 4940.61 2231.14 4927.42 2231.14C4927.42 2110.67 4927.42 1990.34 4927.42 1869.22C4885.76 1869.22 4846.33 1869.22 4805.68 1869.22C4805.68 1855.85 4805.68 1843.57 4805.68 1829.72C4900.25 1829.72 4994.49 1829.72 5089.82 1829.72C5090.16 1836.59 5090.11 1842.79 5090.87 1848.88C5092.98 1865.81 5085.02 1870.96 5068.92 1870.58C5035.31 1869.79 5001.65 1870.34 4964.45 1870.34C4964.45 1937.74 4964.45 2004.04 4964.45 2072.44Z" fill="#6F6864"/>
<path d="M4602.17 2135.6C4602.17 2155.78 4602.17 2173.87 4602.17 2194.18C4671.3 2194.18 4738.32 2194.18 4806.99 2194.18C4806.99 2207.24 4806.99 2218.1 4806.99 2230.77C4727.37 2230.77 4647.16 2230.77 4565.6 2230.77C4565.6 2097.37 4565.6 1964.38 4565.6 1829.78C4576.77 1829.78 4587.63 1829.78 4602.17 1829.78C4602.17 1930.66 4602.17 2032.08 4602.17 2135.6Z" fill="#6F6864"/>
<path d="M5156 1830.25C5169.23 1828.82 5181.11 1828.82 5194.55 1828.82C5194.55 1962.6 5194.55 2096.05 5194.55 2231.01C5181.99 2231.01 5169.19 2231.01 5154.65 2231.01C5154.65 2097.6 5154.65 1964.64 5156 1830.25Z" fill="#6F6864"/>
<path d="M755.212 1823.87C717.336 1765.39 679.603 1708.47 641.854 1651.56C557.428 1524.28 472.968 1397.02 388.575 1269.72C325.332 1174.32 262.137 1078.89 198.977 983.438C149.571 908.771 100.169 834.1 50.9467 759.311C35.6912 736.135 20.8482 712.677 6.25277 689.075C3.21786 684.168 2.11424 678.065 0 672.18C60.7091 654.872 119.567 638.305 178.298 621.3C277.317 592.627 376.212 563.528 475.239 534.889C582.986 503.722 690.897 473.133 798.602 441.814C878.951 418.449 959.008 394.086 1039.32 370.603C1145.68 339.508 1252.12 308.716 1358.58 278.018C1476.76 243.942 1595.06 210.257 1713.24 176.142C1811.06 147.903 1908.83 119.479 2006.52 90.7777C2098.49 63.7546 2190.31 36.2067 2282.25 9.04702C2293.19 5.81569 2304.41 3.57456 2319.1 0C2316.36 8.0838 2314.81 14.9035 2311.85 21.0369C2267.77 112.217 2223.39 203.25 2179.32 294.436C2146.01 363.383 2113.04 432.501 2079.91 501.54C2030.2 605.108 1980.47 708.667 1930.78 812.243C1897.68 881.269 1864.67 950.338 1831.54 1019.36C1781.82 1122.97 1732.04 1226.55 1682.25 1330.14C1646.19 1405.18 1610.1 1480.19 1574.01 1555.21C1518.79 1669.99 1463.5 1784.75 1408.34 1899.56C1359.73 2000.75 1311.19 2101.97 1262.73 2203.24C1229.62 2272.4 1196.7 2341.65 1163.74 2410.89C1161.71 2415.15 1160.03 2419.58 1156.47 2428C1141.8 2406.44 1127.8 2386.34 1114.28 2365.92C1066.08 2293.09 1018.1 2220.12 969.931 2147.26C900.338 2042.02 830.661 1936.82 760.958 1831.64C759.437 1829.35 757.234 1827.5 755.212 1823.87ZM2102.77 255.639C2090.26 266.634 2077.42 277.271 2065.31 288.683C2012.04 338.868 1959 389.306 1905.83 439.598C1855.19 487.492 1804.42 535.255 1753.82 583.195C1697.58 636.481 1641.37 689.8 1585.34 743.296C1546.51 780.364 1508.04 817.811 1469.32 854.997C1436.3 886.699 1403.39 918.523 1370 949.833C1322.2 994.66 1274 1039.07 1224.92 1084.63C1319.54 1228.12 1413.04 1369.89 1507.12 1512.56C1515.05 1495.27 1521.91 1479.67 1529.29 1464.33C1564.57 1391.03 1600.14 1317.87 1635.33 1244.54C1685.32 1140.35 1734.98 1036.01 1784.96 931.817C1820.69 857.331 1856.78 783.022 1892.6 708.578C1944.16 601.418 1995.73 494.261 2047.06 386.991C2067.69 343.867 2087.68 300.438 2110.28 256.225C2110.71 254.055 2111.13 251.885 2111.56 249.715C2110.32 248.759 2109.07 247.802 2107.83 246.845C2106.85 249.158 2105.88 251.471 2102.77 255.639ZM1155.92 1126.02C1039.89 950.385 923.866 774.741 806.813 597.542C803.59 603.393 801.147 606.759 799.761 610.512C776.385 673.76 753.177 737.07 729.856 800.339C703.948 870.625 678.04 940.911 652.002 1011.15C613.427 1115.22 574.514 1219.17 536.579 1323.48C533.938 1330.75 535.438 1342.33 539.684 1348.87C608.574 1455.08 678.002 1560.95 747.76 1666.6C831.482 1793.41 915.748 1919.85 999.559 2046.6C1047.79 2119.53 1095.57 2192.75 1144.46 2267.2C1252.35 2042.39 1359.27 1819.62 1466.95 1595.26C1417.26 1521.25 1366.28 1446.13 1316.15 1370.45C1262.93 1290.1 1210.5 1209.23 1155.92 1126.02ZM1024.93 781.303C1076.39 859.471 1127.86 937.642 1179.57 1016.19C1230.48 968.898 1280.05 923.249 1329.17 877.12C1383.54 826.063 1437.63 774.703 1491.58 723.203C1535.06 681.7 1578.12 639.758 1621.42 598.065C1650.52 570.04 1679.34 541.713 1708.96 514.236C1759.95 466.924 1811.72 420.457 1862.65 373.076C1893.16 344.692 1922.52 315.087 1952.68 286.317C2000.83 240.375 2049.21 194.672 2099.34 147.127C1679.74 268.864 1262.58 389.896 845.995 510.761C905.499 601.093 964.126 690.099 1024.93 781.303ZM254.032 916.539C327.612 1029.05 401.192 1141.56 475.18 1254.69C563.536 1017.27 651.324 781.388 740.725 541.178C532.299 601.704 328.361 660.925 122.224 720.786C166.772 786.973 209.505 850.469 254.032 916.539Z" fill="#F6C30C"/>
<path fill-rule="evenodd" clip-rule="evenodd" d="M3291.28 1874.59C3262.62 1850.07 3229.54 1838.47 3193.01 1828.26C3186.94 1828.23 3181.04 1828.05 3175.26 1827.87C3162.53 1827.48 3150.43 1827.11 3138.51 1828.46C3085.12 1834.49 3038.84 1853.66 3003.97 1897.86C2969.21 1941.92 2956.25 1991.08 2959.26 2045.79C2962.87 2111.67 2991.56 2164.27 3044.52 2203.16C3083.25 2231.59 3127.82 2239.22 3174.91 2236.73C3234 2233.61 3281.8 2208.8 3316.9 2161.47C3356.83 2107.64 3368.51 2046.37 3354.18 1981.82C3344.97 1940.35 3325.29 1903.69 3291.28 1874.59ZM3266.02 1909.17C3299.36 1940.02 3313.42 1977.36 3317.32 2020.56C3318.24 2077.77 3302.17 2124.51 3263.24 2158.15C3257.48 2163.13 3251.22 2167.82 3244.45 2172.21C3232.96 2179.66 3221.05 2185.44 3208.96 2189.64C3174.74 2201.52 3139.04 2200.78 3107.05 2189.58C3059.89 2173.06 3020.79 2133.84 3006.37 2078.85C2990.82 2019.54 2999.55 1961.5 3043.31 1915.5C3057.96 1900.1 3075.15 1888.26 3093.72 1880.1C3130.37 1863.98 3172.35 1862.2 3210.62 1875.67C3230.52 1882.67 3249.4 1893.79 3266.02 1909.17Z" fill="#6F6864"/>
<path d="M2633.62 1055.89V1559.86H2732.65H2831.69V1390.05V1219.81L2946.74 1217.28C3036.08 1215.17 3069.79 1212.65 3099.29 1206.75C3236.25 1177.25 3316.74 1104.77 3346.66 983.834C3360.14 929.057 3359.3 840.144 3344.55 784.1C3317.16 679.597 3256.05 610.49 3162.08 578.047C3099.71 556.135 3096.34 556.135 2858.24 554.025L2633.62 551.918V1055.89ZM3036.08 739.433C3083.7 752.92 3116.99 778.624 3135.53 816.547C3144.38 834.668 3145.64 843.093 3145.64 885.654C3145.64 929.9 3144.8 935.797 3134.27 955.182C3121.2 980.043 3090.44 1009.96 3068.52 1019.23C3031.86 1034.82 3009.95 1037.77 2921.45 1040.3L2831.69 1042.83V889.024C2831.69 804.327 2832.95 733.957 2835.06 732.272C2840.54 726.37 3012.9 732.693 3036.08 739.433Z" fill="black"/>
<path d="M3522.86 1056.32V1559.86H3624H3725.13V1056.32V552.762H3624H3522.86V1056.32Z" fill="black"/>
<path d="M3948.46 1056.32V1559.86H4287.69H4626.93V1471.37V1382.89H4386.73H4146.53V1267.01V1151.13H4325.65H4504.73V1062.63V974.146L4326.91 973.304L4148.64 972.036L4147.37 853.207L4146.53 733.957L4370.72 733.115L4595.34 731.851L4596.6 642.096L4597.45 552.762H4272.95H3948.46V1056.32Z" fill="black"/>
</svg>
